<svg width="61" height="16" viewBox="0 0 61 16" fill="none" xmlns="http://www.w3.org/2000/svg">
<rect width="1.71428" height="3.99999" fill="black"/>
<rect x="1.71448" y="3.05176e-05" width="3.42856" height="1.71428" fill="black"/>
<rect x="2.28558" y="14.2857" width="6.85713" height="1.71428" fill="black"/>
<rect x="5.14301" y="3.05176e-05" width="1.71428" height="16" fill="black"/>
<rect x="17.143" y="14.2857" width="9.14284" height="1.71428" fill="black"/>
<rect x="17.143" y="6.85712" width="9.14284" height="1.71428" fill="black"/>
<rect x="17.1429" width="9.14284" height="1.71428" fill="black"/>
<rect x="24.5715" y="3.05176e-05" width="1.71428" height="16" fill="black"/>
<rect x="34.2855" y="14.2857" width="9.14284" height="1.71428" fill="black"/>
<rect x="34.2855" y="6.85712" width="9.14284" height="1.71428" fill="black"/>
<rect x="34.2855" width="9.14284" height="1.71428" fill="black"/>
<rect x="41.7139" y="3.05176e-05" width="1.71428" height="16" fill="black"/>
<rect x="51.4284" width="1.71428" height="5.14285" fill="black"/>
<rect x="51.4284" width="9.14284" height="1.71428" fill="black"/>
<rect x="58.8569" y="3.05176e-05" width="1.71428" height="16" fill="black"/>
</svg>
