<svg width="108" height="17" viewBox="0 0 108 17" fill="none" xmlns="http://www.w3.org/2000/svg">
<path d="M5.35267 17L0 1H2.35609L7.27414 15.7657H6.08466L11.1857 1H13.2902L18.2768 15.7657H17.1331L22.1198 1H24.2929L18.9402 17H16.5384L11.8719 3.30857H12.4896L7.80025 17H5.35267Z" fill="black"/>
<path d="M29.1727 7.90286H37.4075V9.84571H29.1727V7.90286ZM29.3785 15.0114H38.7114V17H27.0911V1H38.3912V2.98857H29.3785V15.0114Z" fill="black"/>
<path d="M42.4153 17V1H49.5979C51.4432 1 52.8614 1.37333 53.8526 2.12C54.8439 2.85143 55.3395 3.85714 55.3395 5.13714C55.3395 6.00571 55.1412 6.73714 54.7447 7.33143C54.3635 7.92571 53.845 8.38286 53.1893 8.70286C52.5335 9.02286 51.8244 9.18286 51.0619 9.18286L51.4737 8.49714C52.3887 8.49714 53.1969 8.65714 53.8984 8.97714C54.5999 9.29714 55.1565 9.76952 55.5682 10.3943C55.98 11.0038 56.1858 11.7657 56.1858 12.68C56.1858 14.0514 55.6673 15.1181 54.6304 15.88C53.6086 16.6267 52.0837 17 50.0554 17H42.4153ZM44.7028 15.1486H49.9639C51.2297 15.1486 52.198 14.9352 52.869 14.5086C53.54 14.0819 53.8755 13.4114 53.8755 12.4971C53.8755 11.5676 53.54 10.8895 52.869 10.4629C52.198 10.0362 51.2297 9.82286 49.9639 9.82286H44.4969V7.97143H49.3921C50.5511 7.97143 51.4508 7.75809 52.0913 7.33143C52.7318 6.90476 53.052 6.26476 53.052 5.41143C53.052 4.55809 52.7318 3.9181 52.0913 3.49143C51.4508 3.06476 50.5511 2.85143 49.3921 2.85143H44.7028V15.1486Z" fill="black"/>
<path d="M80.9248 7.90286H89.1597V9.84571H80.9248V7.90286ZM81.1307 15.0114H90.4635V17H78.8432V1H90.1433V2.98857H81.1307V15.0114Z" fill="black"/>
<path d="M98.5647 17L91.5193 1H93.9898L100.463 15.7657H99.0451L105.564 1H107.852L100.829 17H98.5647Z" fill="black"/>
<path d="M65.7399 2.23468L74.2062 8.67257L65.7399 15.1105" stroke="#1CD679" stroke-width="2" stroke-linecap="square"/>
<path d="M4.88867 1H7.95094L13.3549 16.8742H10.2927L4.88867 1Z" fill="#1CD679"/>
</svg>
